<svg width="24" height="24" viewBox="0 0 24 24" fill="none" xmlns="http://www.w3.org/2000/svg">
<path fill-rule="evenodd" clip-rule="evenodd" d="M14.8291 6.72185C14.2309 6.40208 13.5845 6.18774 12.9182 6.08591V3.15071e-06C14.5818 0.125119 16.2046 0.59558 17.6817 1.3851C19.4245 2.31667 20.9107 3.66369 22.0087 5.30684C23.1066 6.94998 23.7823 8.83854 23.976 10.8052C23.9851 10.8974 23.9931 10.9896 24 11.0818H17.9141C17.7824 10.2199 17.4631 9.3959 16.9772 8.66875C16.4322 7.85303 15.6943 7.18432 14.8291 6.72185ZM5.34068 1.99138C7.06618 0.838436 9.05636 0.154868 11.1157 0V6.08591C10.256 6.21729 9.43171 6.53565 8.70259 7.02283C7.72155 7.67834 6.95692 8.61005 6.50539 9.70013C6.05387 10.7902 5.93573 11.9897 6.16591 13.1469C6.33699 14.007 6.69477 14.815 7.20974 15.5157L2.90634 19.8191C1.5597 18.2535 0.635769 16.3628 0.230907 14.3275C-0.232768 11.9964 0.00520674 9.58021 0.914739 7.3844C1.82427 5.1886 3.36451 3.31181 5.34068 1.99138ZM4.18094 21.0937C5.44575 22.1816 6.9259 22.9964 8.52863 23.4826C10.4197 24.0562 12.4231 24.1546 14.3613 23.7691C16.2815 23.3871 18.079 22.5419 19.5977 21.3072L14.1816 17.5421C13.8583 17.6681 13.5235 17.7659 13.1808 17.8341C12.2186 18.0255 11.224 17.9766 10.2852 17.6918C9.63608 17.4949 9.02745 17.1894 8.48433 16.7903L4.18094 21.0937ZM17.5285 14.266C17.7128 13.821 17.8419 13.357 17.9141 12.8843H24C23.9047 14.1514 23.6087 15.3998 23.1191 16.5818C22.5917 17.8551 21.851 19.0239 20.9328 20.04L15.881 16.5282C16.6014 15.9158 17.1663 15.1405 17.5285 14.266Z" fill="white"/>
</svg>
